<?xml version="1.0" standalone="no"?>
<!DOCTYPE svg PUBLIC "-//W3C//DTD SVG 20010904//EN"
 "http://www.w3.org/TR/2001/REC-SVG-20010904/DTD/svg10.dtd">
<svg version="1.0" xmlns="http://www.w3.org/2000/svg"
 width="512.000000pt" height="512.000000pt" viewBox="0 0 512.000000 512.000000"
 preserveAspectRatio="xMidYMid meet">

<g transform="translate(0.000000,512.000000) scale(0.100000,-0.100000)"
fill="#000000" stroke="none">
<path d="M2890 4425 l-175 -175 715 -715 715 -715 -2073 0 -2072 0 0 -260 0
-260 2072 0 2073 0 -715 -715 -715 -715 175 -175 c96 -96 178 -174 182 -173 5
2 467 462 1028 1023 l1020 1020 -1017 1017 c-560 560 -1023 1018 -1028 1018
-6 0 -89 -79 -185 -175z"/>
</g>
</svg>
